<?xml version="1.0" encoding="UTF-8" standalone="no"?>
<!-- Created with Inkscape (http://www.inkscape.org/) -->

<svg
   xmlns:dc="http://purl.org/dc/elements/1.1/"
   xmlns:cc="http://creativecommons.org/ns#"
   xmlns:rdf="http://www.w3.org/1999/02/22-rdf-syntax-ns#"
   xmlns:svg="http://www.w3.org/2000/svg"
   xmlns="http://www.w3.org/2000/svg"
   xmlns:sodipodi="http://sodipodi.sourceforge.net/DTD/sodipodi-0.dtd"
   xmlns:inkscape="http://www.inkscape.org/namespaces/inkscape"
   width="24"
   height="24"
   viewBox="0 0 24 24"
   id="svg2"
   version="1.1"
   inkscape:version="0.48.4 r9939"
   sodipodi:docname="pritunl_client_disconnected.svg">
  <defs
     id="defs4" />
  <sodipodi:namedview
     id="base"
     pagecolor="#000000"
     bordercolor="#666666"
     borderopacity="1.0"
     inkscape:pageopacity="0.83529412"
     inkscape:pageshadow="2"
     inkscape:zoom="32"
     inkscape:cx="4.6232227"
     inkscape:cy="11.81921"
     inkscape:document-units="px"
     inkscape:current-layer="layer1"
     showgrid="false"
     fit-margin-top="0"
     fit-margin-left="0"
     fit-margin-right="0"
     fit-margin-bottom="0"
     inkscape:window-width="1914"
     inkscape:window-height="998"
     inkscape:window-x="0"
     inkscape:window-y="27"
     inkscape:window-maximized="1" />
  <metadata
     id="metadata7">
    <rdf:RDF>
      <cc:Work
         rdf:about="">
        <dc:format>image/svg+xml</dc:format>
        <dc:type
           rdf:resource="http://purl.org/dc/dcmitype/StillImage" />
        <dc:title />
      </cc:Work>
    </rdf:RDF>
  </metadata>
  <g
     inkscape:label="Layer 1"
     inkscape:groupmode="layer"
     id="layer1"
     transform="translate(-241.5312,-339.5)">
    <path
       style="fill:none;stroke:#3c3c3c;stroke-width:1.20796204;stroke-linejoin:round;stroke-miterlimit:4;stroke-opacity:1;stroke-dasharray:none"
       d="m 246.30865,341.96398 c -1.28166,0 -2.31347,1.03181 -2.31347,2.31348 l 0,14.44508 c 0,1.28167 1.03181,2.31347 2.31347,2.31347 l 1.25548,0 0,-13.7468 c 0,-0.3807 0.009,-0.66433 0.0247,-0.84641 0.0332,-0.18206 0.10982,-0.38895 0.22569,-0.62068 0.23172,-0.44688 0.78381,-0.67004 1.66104,-0.67006 0.87723,10e-6 1.46539,0.11742 1.76332,0.34913 0.31448,0.21518 0.49698,0.53597 0.54662,0.9663 0.62898,-0.86067 1.61464,-1.29073 2.95533,-1.29074 1.35723,10e-6 2.63928,0.63696 3.84756,1.91144 1.20826,1.27447 1.81268,2.75881 1.8127,4.44707 -2e-5,1.68827 -0.60444,3.16908 -1.8127,4.44357 -1.19172,1.27448 -2.46564,1.91144 -3.82287,1.91144 -1.35723,0 -2.34292,-0.38126 -2.95533,-1.14263 l 0,4.28838 8.94356,0 c 1.28166,0 2.31347,-1.0318 2.31347,-2.31348 l 0,-14.44507 c 0,-1.28168 -1.03181,-2.31349 -2.31347,-2.31349 l -14.4451,0 z m 7.68807,7.45882 c -0.62898,1e-5 -1.13578,0.22318 -1.51646,0.67007 -0.38069,0.4469 -0.57132,0.93743 -0.57132,1.46707 0,0.52967 0.19063,1.01668 0.57132,1.46356 0.39724,0.43034 0.89236,0.64537 1.48825,0.64537 0.6124,0 1.12734,-0.21503 1.54114,-0.64537 0.43032,-0.43033 0.64535,-0.91735 0.64536,-1.46356 -1e-5,-0.54619 -0.19875,-1.03672 -0.596,-1.46707 -0.39725,-0.44689 -0.91678,-0.67006 -1.56229,-0.67007 z"
       id="rect4424"
       inkscape:connector-curvature="0" />
  </g>
</svg>
