<?xml version="1.0" encoding="UTF-8" standalone="no"?>
<!-- Created with Inkscape (http://www.inkscape.org/) -->

<svg
   xmlns:dc="http://purl.org/dc/elements/1.1/"
   xmlns:cc="http://creativecommons.org/ns#"
   xmlns:rdf="http://www.w3.org/1999/02/22-rdf-syntax-ns#"
   xmlns:svg="http://www.w3.org/2000/svg"
   xmlns="http://www.w3.org/2000/svg"
   xmlns:sodipodi="http://sodipodi.sourceforge.net/DTD/sodipodi-0.dtd"
   xmlns:inkscape="http://www.inkscape.org/namespaces/inkscape"
   width="24"
   height="24"
   viewBox="0 0 24 24"
   id="svg2"
   version="1.1"
   inkscape:version="0.48.4 r9939"
   sodipodi:docname="pritunl_client_connected.svg">
  <defs
     id="defs4" />
  <sodipodi:namedview
     id="base"
     pagecolor="#000000"
     bordercolor="#666666"
     borderopacity="1.0"
     inkscape:pageopacity="0.83529412"
     inkscape:pageshadow="2"
     inkscape:zoom="2"
     inkscape:cx="-45.185933"
     inkscape:cy="39.914621"
     inkscape:document-units="px"
     inkscape:current-layer="layer1"
     showgrid="false"
     fit-margin-top="0"
     fit-margin-left="0"
     fit-margin-right="0"
     fit-margin-bottom="0"
     inkscape:window-width="1914"
     inkscape:window-height="998"
     inkscape:window-x="0"
     inkscape:window-y="27"
     inkscape:window-maximized="1" />
  <metadata
     id="metadata7">
    <rdf:RDF>
      <cc:Work
         rdf:about="">
        <dc:format>image/svg+xml</dc:format>
        <dc:type
           rdf:resource="http://purl.org/dc/dcmitype/StillImage" />
        <dc:title />
      </cc:Work>
    </rdf:RDF>
  </metadata>
  <g
     inkscape:label="Layer 1"
     inkscape:groupmode="layer"
     id="layer1"
     transform="translate(-241.5312,-339.5)">
    <path
       style="fill:#dfdbd2;fill-opacity:1;stroke:none"
       d="m 245.447,340.82632 c -1.43456,0 -2.58947,1.15491 -2.58947,2.58948 l 0,16.16842 c 0,1.43456 1.15491,2.58947 2.58947,2.58947 l 1.40527,0 0,-15.38684 c 0,-0.42609 0.009,-0.74357 0.0276,-0.94737 0.0371,-0.20378 0.12294,-0.43536 0.25263,-0.69474 0.25937,-0.50019 0.87731,-0.74998 1.85921,-0.75 0.98189,2e-5 1.64021,0.13144 1.97368,0.39079 0.352,0.24086 0.55626,0.59991 0.61185,1.08158 0.70399,-0.96335 1.80725,-1.44472 3.30789,-1.44474 1.51915,2e-5 2.95415,0.71296 4.30658,2.13947 1.35241,1.42654 2.02893,3.08795 2.02895,4.97763 -2e-5,1.88969 -0.67654,3.54716 -2.02895,4.97368 -1.33391,1.42653 -2.7598,2.13948 -4.27895,2.13948 -1.51916,0 -2.62242,-0.42674 -3.30789,-1.27895 l 0,4.8 10.01052,0 c 1.43457,0 2.58948,-1.15491 2.58948,-2.58947 l 0,-16.16842 c 0,-1.43457 -1.15491,-2.58948 -2.58948,-2.58948 l -16.16842,0 z m 8.60527,8.34869 c -0.70401,1e-5 -1.27127,0.2498 -1.69737,0.75 -0.42611,0.50022 -0.63948,1.04927 -0.63948,1.6421 0,0.59285 0.21337,1.13795 0.63948,1.63816 0.44462,0.48169 0.99883,0.72237 1.66579,0.72237 0.68546,0 1.26183,-0.24068 1.725,-0.72237 0.48167,-0.48168 0.72236,-1.02678 0.72237,-1.63816 -10e-6,-0.61136 -0.22249,-1.16041 -0.66711,-1.6421 -0.44464,-0.5002 -1.02617,-0.74999 -1.74868,-0.75 z"
       id="rect4424"
       inkscape:connector-curvature="0" />
  </g>
</svg>
