<?xml version="1.0" encoding="UTF-8" standalone="no"?>
<!-- Created with Inkscape (http://www.inkscape.org/) -->

<svg
   xmlns:dc="http://purl.org/dc/elements/1.1/"
   xmlns:cc="http://creativecommons.org/ns#"
   xmlns:rdf="http://www.w3.org/1999/02/22-rdf-syntax-ns#"
   xmlns:svg="http://www.w3.org/2000/svg"
   xmlns="http://www.w3.org/2000/svg"
   xmlns:sodipodi="http://sodipodi.sourceforge.net/DTD/sodipodi-0.dtd"
   xmlns:inkscape="http://www.inkscape.org/namespaces/inkscape"
   width="22"
   height="22"
   viewBox="0 0 22 22"
   id="svg2"
   version="1.1"
   inkscape:version="0.48.4 r9939"
   sodipodi:docname="pritunl_client_connected.svg">
  <defs
     id="defs4" />
  <sodipodi:namedview
     id="base"
     pagecolor="#000000"
     bordercolor="#666666"
     borderopacity="1.0"
     inkscape:pageopacity="0.83529412"
     inkscape:pageshadow="2"
     inkscape:zoom="22.627417"
     inkscape:cx="1.8729897"
     inkscape:cy="7.6823507"
     inkscape:document-units="px"
     inkscape:current-layer="layer1"
     showgrid="false"
     fit-margin-top="0"
     fit-margin-left="0"
     fit-margin-right="0"
     fit-margin-bottom="0"
     inkscape:window-width="1914"
     inkscape:window-height="998"
     inkscape:window-x="0"
     inkscape:window-y="27"
     inkscape:window-maximized="1" />
  <metadata
     id="metadata7">
    <rdf:RDF>
      <cc:Work
         rdf:about="">
        <dc:format>image/svg+xml</dc:format>
        <dc:type
           rdf:resource="http://purl.org/dc/dcmitype/StillImage" />
        <dc:title />
      </cc:Work>
    </rdf:RDF>
  </metadata>
  <g
     inkscape:label="Layer 1"
     inkscape:groupmode="layer"
     id="layer1"
     transform="translate(-241.5312,-341.5)">
    <path
       style="fill:#3c3c3c;fill-opacity:1;stroke:none"
       d="m 245.49122,343.205 c -1.24927,0 -2.255,1.00573 -2.255,2.255 l 0,14.08 c 0,1.24927 1.00573,2.255 2.255,2.255 l 1.22375,0 0,-13.39938 c 0,-0.37105 0.008,-0.64752 0.024,-0.825 0.0323,-0.17745 0.10706,-0.37912 0.22,-0.605 0.22586,-0.43558 0.76399,-0.6531 1.61907,-0.65312 0.85506,2e-5 1.42834,0.11445 1.71875,0.34032 0.30653,0.20974 0.48441,0.52241 0.53281,0.94186 0.61306,-0.83891 1.57382,-1.25811 2.88063,-1.25812 1.32293,10e-6 2.57258,0.62087 3.75032,1.86312 1.17772,1.24228 1.76686,2.6891 1.76687,4.33469 -10e-6,1.64561 -0.58915,3.08899 -1.76687,4.33125 -1.16161,1.24227 -2.40333,1.86313 -3.72625,1.86313 -1.32295,0 -2.2837,-0.37162 -2.88064,-1.11375 l 0,4.18 8.71752,0 c 1.24927,0 2.255,-1.00573 2.255,-2.255 l 0,-14.08 c 0,-1.24927 -1.00573,-2.255 -2.255,-2.255 l -14.08003,0 z m 7.49376,7.27031 c -0.61307,1e-5 -1.10706,0.21753 -1.47812,0.65313 -0.37107,0.4356 -0.55688,0.91374 -0.55687,1.42999 -1e-5,0.51628 0.1858,0.99098 0.55687,1.42657 0.38719,0.41947 0.86982,0.62906 1.45062,0.62906 0.59693,0 1.09885,-0.20959 1.50219,-0.62906 0.41946,-0.41946 0.62906,-0.89416 0.62907,-1.42657 -1e-5,-0.53239 -0.19375,-1.01052 -0.58094,-1.42999 -0.38721,-0.4356 -0.89362,-0.65312 -1.52282,-0.65313 z"
       id="rect4424"
       inkscape:connector-curvature="0" />
  </g>
</svg>
